<?xml version="1.0" standalone="no"?>
<!DOCTYPE svg PUBLIC "-//W3C//DTD SVG 1.0//EN" "http://www.w3.org/TR/2001/REC-SVG-20010904/DTD/svg10.dtd">
<svg xmlns="http://www.w3.org/2000/svg" xmlns:xlink="http://www.w3.org/1999/xlink" id="body_1" width="188" height="68">

<g transform="matrix(0.5 0 0 0.5 0 0)">
	<g transform="matrix(1.355404 0 0 1.359999 0 0)">
	</g>
    <path transform="matrix(1.355404 0 0 1.359999 0 0)"  d="M40.689 81.426C 43.334 84.856 45.994 87.339 47.958 88.94801L47.958 88.94801L47.958 73.446C 43.981 73.58 40.162 74.106 36.513 75.02C 37.728 77.244 39.115 79.383 40.689 81.426z" stroke="none" fill="none" />
	<g transform="matrix(1.355404 0 0 1.359999 0 0)">
	</g>
    <path transform="matrix(1.355404 0 0 1.359999 0 0)"  d="M34.665 71.252C 38.891 70.122 43.327 69.477 47.959 69.332L47.959 69.332L47.959 52.814L30.493 52.814C 30.8 59.44 32.196 65.603 34.665 71.252z" stroke="none" fill="none" />
	<g transform="matrix(1.355404 0 0 1.359999 0 0)">
	</g>
    <path transform="matrix(1.355404 0 0 1.359999 0 0)"  d="M37.578 84.074C 35.92 81.94099 34.163 79.311 32.539 76.193C 29.182 77.338 25.984 78.83 22.96 80.674C 28.603 85.65401 35.622 89.106 43.37 90.374C 41.607 88.754 39.595 86.67 37.578 84.074z" stroke="none" fill="none" />
	<g transform="matrix(1.355404 0 0 1.359999 0 0)">
	</g>
    <path transform="matrix(1.355404 0 0 1.359999 0 0)"  d="M30.444 48.734L47.959 48.734L47.959 30.668C 43.327 30.523 38.891 29.878 34.666 28.748C 32.005 34.835 30.592 41.519 30.444 48.734z" stroke="none" fill="none" />
	<g transform="matrix(1.355404 0 0 1.359999 0 0)">
	</g>
    <path transform="matrix(1.355404 0 0 1.359999 0 0)"  d="M26.403 52.814L9.189 52.814C 9.843 62.39 13.799 71.07 19.934 77.719C 23.348 75.542 26.967 73.787 30.773 72.451C 28.493 67.092 26.749 60.558 26.403 52.814z" stroke="none" fill="none" />
	<g transform="matrix(1.355404 0 0 1.359999 0 0)">
	</g>
    <path transform="matrix(1.355404 0 0 1.359999 0 0)"  d="M37.578 15.925C 39.594 13.331 41.604 11.247 43.367 9.628C 35.621 10.896 28.604 14.346 22.962 19.325C 25.986 21.169 29.184 22.661 32.54 23.806C 34.163 20.688 35.92 18.059 37.578 15.925z" stroke="none" fill="none" />
	<g transform="matrix(1.355404 0 0 1.359999 0 0)">
	</g>
    <path transform="matrix(1.355404 0 0 1.359999 0 0)"  d="M40.689 18.574C 39.115 20.617 37.729 22.756 36.515 24.98C 40.163 25.894 43.982 26.419 47.959 26.553L47.959 26.553L47.959 11.052C 45.995 12.66 43.334 15.143 40.689 18.574z" stroke="none" fill="none" />
	<g transform="matrix(1.355404 0 0 1.359999 0 0)">
	</g>
    <path transform="matrix(1.355404 0 0 1.359999 0 0)"  d="M30.773 27.548C 26.967 26.212 23.349 24.457 19.935 22.28C 13.47 29.286 9.425 38.547 9.113 48.734L9.113 48.734L26.367 48.734C 26.536 40.313 28.344 33.259 30.773 27.548z" stroke="none" fill="none" />
	<g transform="matrix(1.355404 0 0 1.359999 0 0)">
	</g>
    <path transform="matrix(1.355404 0 0 1.359999 0 0)"  d="M62.42 84.074C 60.404 86.67 58.393 88.755 56.63 90.374C 64.377 89.106 71.395 85.655 77.03799 80.675C 74.01299 78.83 70.81599 77.33801 67.45899 76.193C 65.835 79.311 64.077 81.94 62.42 84.074z" stroke="none" fill="none" />
	<g transform="matrix(1.355404 0 0 1.359999 0 0)">
	</g>
    <path transform="matrix(1.355404 0 0 1.359999 0 0)"  d="M63.486 75.02C 59.836 74.105 56.017 73.57999 52.039 73.446L52.039 73.446L52.039 88.949C 54.002 87.341 56.664 84.85699 59.311 81.42599C 60.885 79.383 62.271 77.244 63.486 75.02z" stroke="none" fill="none" />
	<g transform="matrix(1.355404 0 0 1.359999 0 0)">
	</g>
    <path transform="matrix(1.355404 0 0 1.359999 0 0)"  d="M69.225 27.548C 71.654 33.259 73.462 40.313 73.631 48.734L73.631 48.734L90.88599 48.734C 90.574 38.546 86.52899 29.286 80.064 22.28C 76.649 24.457 73.031 26.213 69.225 27.548z" stroke="none" fill="none" />
	<g transform="matrix(1.355404 0 0 1.359999 0 0)">
	</g>
    <path transform="matrix(1.355404 0 0 1.359999 0 0)"  d="M69.224 72.452C 73.031 73.788 76.65 75.54301 80.064 77.719C 86.199 71.07 90.155 62.39 90.809 52.814L90.809 52.814L73.594 52.814C 73.249 60.559 71.504 67.092 69.224 72.452z" stroke="none" fill="none" />
	<g transform="matrix(1.355404 0 0 1.359999 0 0)">
	</g>
    <path transform="matrix(1.355404 0 0 1.359999 0 0)"  d="M62.42 15.925C 64.077 18.059 65.835 20.689 67.459 23.806C 70.816 22.661 74.013 21.17 77.038 19.326C 71.396 14.347 64.379 10.896 56.633 9.628C 58.395 11.247 60.405 13.331 62.42 15.925z" stroke="none" fill="none" />
	<g transform="matrix(1.355404 0 0 1.359999 0 0)">
	</g>
    <path transform="matrix(1.355404 0 0 1.359999 0 0)"  d="M65.303 28.757C 61.086 29.882 56.66 30.524 52.039 30.669L52.039 30.669L52.039 48.735L69.55 48.735C 69.379 40.747 67.628 34.098 65.303 28.757z" stroke="none" fill="none" />
	<g transform="matrix(1.355404 0 0 1.359999 0 0)">
	</g>
    <path transform="matrix(1.355404 0 0 1.359999 0 0)"  d="M59.197 18.43C 56.576 15.055 53.968 12.622 52.039 11.042L52.039 11.042L52.039 26.553C 56.009 26.419 59.82 25.896 63.462 24.985C 62.073 22.421 60.596 20.231 59.197 18.43z" stroke="none" fill="none" />
	<g transform="matrix(1.355404 0 0 1.359999 0 0)">
	</g>
    <path transform="matrix(1.355404 0 0 1.359999 0 0)"  d="M69.508 52.814L52.039 52.814L52.039 69.331C 56.672 69.476 61.108 70.121 65.335 71.252C 67.805 65.604 69.201 59.44 69.508 52.814z" stroke="none" fill="none" />
	<g transform="matrix(1.355404 0 0 1.359999 0 0)">
	</g>
    <path transform="matrix(1.355404 0 0 1.359999 0 0)"  d="M94.982 50.6C 94.985 50.4 94.997 50.202 94.997 50.001C 94.997 37.708 90.039 26.556 82.023 18.427C 81.90501 18.267 81.76701 18.133 81.616 18.018C 73.483 9.976 62.313 5.001 49.999 5.001C 37.676 5.001 26.497 9.983999 18.362 18.036C 18.233 18.137 18.116 18.253 18.011 18.388C 9.974 26.52 5 37.689 5 50.001C 5 50.215 5.013 50.426 5.016 50.639C 5.013 50.685 5.002 50.729 5.002 50.776C 5.002 50.855 5.016 50.929 5.025 51.005C 5.288 62.886 10.169 73.646 17.953 81.55C 18.079 81.72701 18.232 81.873 18.398 81.997C 26.529 90.028 37.691 94.997 49.994 94.998C 49.994 94.998 49.995 94.998 49.995 94.998C 49.995 94.998 49.995 94.998 49.996 94.998C 49.997 94.998 49.998 94.998 49.999 94.998C 49.999 94.998 50 94.998 50 94.998C 50 94.998 50 94.998 50 94.998C 50 94.998 50 94.998 50 94.998C 62.312 94.998 73.48 90.024 81.613 81.985C 81.769 81.867 81.912 81.73 82.032 81.564C 89.809 73.673 94.69099 62.933 94.97 51.071C 94.984 50.974 95 50.877 95 50.777C 95 50.716 94.987 50.659 94.982 50.6zM43.366 9.628C 41.604 11.247 39.593 13.33 37.577 15.925C 35.92 18.059 34.162 20.688 32.539 23.806C 29.183 22.661 25.986 21.17 22.961 19.325C 28.604 14.347 35.621 10.896 43.366 9.628zM19.935 22.28C 23.349 24.456 26.967 26.212 30.773 27.548C 28.344 33.259 26.536 40.313 26.367 48.734L26.367 48.734L9.113 48.734C 9.425 38.547 13.47 29.286 19.935 22.28zM9.189 52.814L26.404 52.814C 26.749 60.558 28.494 67.091 30.773 72.451C 26.967 73.786 23.348 75.542 19.934 77.71899C 13.799 71.071 9.843 62.39 9.189 52.814zM22.96 80.674C 25.985 78.83 29.182 77.33801 32.539 76.193C 34.162 79.311 35.92 81.94 37.578 84.074C 39.595 86.67 41.607 88.755 43.37 90.374C 35.622 89.106 28.603 85.655 22.96 80.674zM47.959 88.948C 45.995 87.339 43.335 84.856 40.69 81.42599C 39.116 79.383 37.729 77.244 36.514 75.02C 40.163 74.106 43.981 73.57999 47.959 73.446L47.959 73.446L47.959 88.948zM47.959 69.332C 43.327 69.477 38.891 70.122 34.665 71.252C 32.196 65.603 30.8 59.44 30.493 52.815L30.493 52.815L47.958 52.815L47.958 69.332zM47.959 48.734L30.444 48.734C 30.592 41.519 32.005 34.835 34.665 28.748C 38.891 29.878 43.326 30.523 47.958 30.668L47.958 30.668L47.958 48.734zM47.959 26.553C 43.982 26.419 40.163 25.894 36.515 24.98C 37.729 22.756 39.116 20.617 40.689 18.574C 43.334 15.143 45.994 12.66 47.958 11.052L47.958 11.052L47.958 26.553zM77.038 19.326C 74.013 21.17 70.815 22.662 67.459 23.806C 65.836 20.688 64.078 18.059 62.42 15.925C 60.405 13.331 58.395 11.247 56.633 9.627999C 64.378 10.897 71.396 14.347 77.038 19.326zM52.039 11.042C 53.968 12.621 56.576 15.055 59.197 18.43C 60.597 20.231 62.073 22.421 63.462 24.985C 59.82 25.896 56.008 26.419 52.039 26.553L52.039 26.553L52.039 11.042zM52.039 30.668C 56.66 30.524 61.086 29.882 65.303 28.756C 67.628 34.097 69.379 40.747 69.551 48.734L69.551 48.734L52.039 48.734L52.039 30.668zM52.039 52.814L69.508 52.814C 69.202 59.44 67.805 65.603 65.33501 71.252C 61.10801 70.121 56.67101 69.476 52.03901 69.331L52.03901 69.331L52.03901 52.814zM52.039 88.949L52.039 73.446C 56.017 73.58 59.837 74.106 63.486 75.02C 62.271 77.244 60.885 79.383 59.31 81.42599C 56.664 84.857 54.002 87.341 52.039 88.949zM56.63 90.373C 58.393 88.754 60.404 86.669 62.42 84.073C 64.077 81.93999 65.835 79.31 67.459 76.192C 70.816 77.337 74.013 78.829 77.038 80.674C 71.395 85.655 64.376 89.105 56.63 90.373zM80.064 77.72C 76.65 75.544 73.03101 73.788 69.224 72.453C 71.504 67.093 73.248 60.559 73.594 52.815L73.594 52.815L90.81 52.815C 90.156 62.39 86.199 71.071 80.064 77.72zM73.63 48.734C 73.461 40.313 71.653 33.259 69.224 27.548C 73.03 26.213 76.64799 24.457 80.063 22.28C 86.52699 29.286 90.573 38.546 90.88499 48.734L90.88499 48.734L73.63 48.734z" stroke="none" fill="#60D69A" fill-rule="nonzero" />
	<g transform="matrix(1.739358 0 0 1.745255 150.544 0)">
	</g>
    <path transform="matrix(1.739358 0 0 1.745255 150.544 0)"  d="M3.83 23.38C 2.643333 22.24667 1.71 20.88667 1.03 19.3C 0.3433333 17.70667 0 15.96333 0 14.07C 0 12.17667 0.32 10.38333 0.96 8.69C 1.593333 6.996667 2.503333 5.506667 3.69 4.22C 4.876667 2.933333 6.31 1.906667 7.99 1.14C 9.67 0.38 11.55 0 13.63 0C 17.22333 0 20.25 1.133333 22.71 3.4C 25.34333 5.820001 26.66 9.086667 26.66 13.2C 26.66 17.18667 25.30667 20.5 22.6 23.14C 20.93333 24.77333 18.94667 25.89334 16.64 26.5C 15.50667 26.8 14.18333 26.95 12.67 26.95C 11.15 26.95 9.593334 26.64 8 26.02C 6.406667 25.39334 5.016667 24.51333 3.83 23.38zM5.43 13.81C 5.43 15.02333 5.633333 16.13667 6.04 17.15C 6.44 18.16333 6.996667 19.03667 7.71 19.77C 9.236668 21.30333 11.19667 22.07 13.59 22.07C 15.87 22.07 17.7 21.33333 19.08 19.86C 20.48667 18.34 21.19 16.26333 21.19 13.63C 21.19 11.15667 20.52 9.093334 19.18 7.44C 17.73333 5.673333 15.75333 4.79 13.24 4.79C 10.80667 4.79 8.873333 5.686666 7.44 7.48C 6.1 9.16 5.43 11.27 5.43 13.81zM36.95 26.46L31.86 26.46C 31.93333 26.02 31.97 25.54 31.97 25.02L31.97 25.02L31.97 0.49L35.88 0.49L46.23 16.78L46.23 1.82C 46.23 1.1 46.16667 0.6566667 46.04 0.49L46.04 0.49L51.31 0.49C 51.24333 1.01 51.21 1.583333 51.21 2.21L51.21 2.21L51.21 26.46L47.15 26.46L36.95 10.82L36.95 26.46zM63.89 26.46L62.03 26.46C 60.11667 26.46 58.84667 26.5 58.22 26.58L58.22 26.58L58.22 0.37C 58.53333 0.45 59.18333 0.49 60.17 0.49C 61.15 0.49 62.29 0.4633334 63.59 0.41L63.59 0.41L63.59 21.78L67.64 21.78C 68.80667 21.78 69.74333 21.74 70.45 21.66C 70.35667 24.70667 70.31 26.29 70.31 26.41L70.31 26.41L70.31 26.6C 69.03667 26.50667 66.89667 26.46 63.89 26.46zM75.53 26.46L75.53 0.41C 76.83 0.4633334 77.61667 0.49 77.89 0.49L77.89 0.49L79.3 0.49C 79.98667 0.49 80.54001 0.4366667 80.96 0.33L80.96 0.33L80.94 26.46L75.53 26.46zM93.55 26.46L88.46 26.46C 88.53334 26.02 88.57001 25.54 88.57 25.02L88.57 25.02L88.57 0.49L92.48 0.49L102.83 16.78L102.83 1.82C 102.83 1.1 102.7667 0.6566667 102.64 0.49L102.64 0.49L107.91 0.49C 107.8433 1.01 107.81 1.583333 107.81 2.21L107.81 2.21L107.81 26.46L103.75 26.46L93.55 10.82L93.55 26.46zM119.92 21.78L127.89 21.78C 128.6967 21.78 129.2567 21.7 129.57 21.54L129.57 21.54L129.65 21.56L129.45 26.46L114.82 26.46L114.82 0.35C 115.1733 0.3766667 115.5667 0.3966666 116 0.41L116 0.41L117.36 0.45C 118.2733 0.4766667 119.2633 0.49 120.33 0.49C 123.31 0.49 126.26 0.4366667 129.18 0.33C 129.0333 1.476667 128.96 3.006667 128.96 4.92C 128.96 5.126667 128.9733 5.283333 129 5.39L129 5.39L128.96 5.45C 128.2867 5.256667 127.3233 5.16 126.07 5.16L126.07 5.16L119.92 5.16L119.92 10.14L124.55 10.14C 125.9833 10.14 126.8433 10.1 127.13 10.02L127.13 10.02L127.19 14.84C 126.5633 14.78 125.7567 14.75 124.77 14.75L124.77 14.75L119.92 14.75L119.92 21.78z" stroke="none" fill="#017D91" fill-rule="nonzero" />
	<g transform="matrix(1.696349 0 0 1.702101 150.544 55.05934)">
	</g>
    <path transform="matrix(1.696349 0 0 1.702101 150.544 55.05934)"  d="M5.66 26.46L3.81 26.46C 1.896667 26.46 0.6266667 26.5 0 26.58L0 26.58L0 0.37C 0.3133333 0.45 0.96 0.49 1.94 0.49C 2.926667 0.49 4.07 0.4633334 5.37 0.41L5.37 0.41L5.37 21.78L9.41 21.78C 10.58333 21.78 11.52333 21.74 12.23 21.66C 12.13667 24.70667 12.09 26.29 12.09 26.41L12.09 26.41L12.09 26.6C 10.81667 26.50667 8.673333 26.46 5.66 26.46zM21.8 21.78L29.77 21.78C 30.57667 21.78 31.13667 21.7 31.45 21.54L31.45 21.54L31.52 21.56L31.33 26.46L16.7 26.46L16.7 0.35C 17.05333 0.3766667 17.44333 0.3966666 17.87 0.41L17.87 0.41L19.24 0.45C 20.15333 0.4766667 21.14333 0.49 22.21 0.49C 25.19 0.49 28.13667 0.4366667 31.05 0.33C 30.91 1.476667 30.84 3.006667 30.84 4.92C 30.84 5.126667 30.85333 5.283333 30.88 5.39L30.88 5.39L30.84 5.45C 30.16 5.256667 29.19667 5.16 27.95 5.16L27.95 5.16L21.8 5.16L21.8 10.14L26.43 10.14C 27.85667 10.14 28.71333 10.1 29 10.02L29 10.02L29.06 14.84C 28.44 14.78 27.63334 14.75 26.64 14.75L26.64 14.75L21.8 14.75L21.8 21.78zM52.42 1.93L52.05 7.68L51.91 7.71C 50.95 6.27 49.31 5.333334 46.99 4.9C 46.26334 4.76 45.56334 4.69 44.89 4.69C 44.22334 4.69 43.65 4.746667 43.17 4.86C 42.69667 4.98 42.29 5.15 41.95 5.37C 41.23667 5.836667 40.88 6.450001 40.88 7.21C 40.88 8.196667 41.19334 8.936666 41.82 9.43C 42.6 10.03 43.89333 10.45 45.7 10.69C 47.51333 10.93 48.96667 11.26 50.06 11.68C 51.15334 12.09333 52.05 12.62 52.75 13.26C 54.08334 14.46 54.75 16.15334 54.75 18.34C 54.75 21.20667 53.66667 23.41333 51.5 24.96C 49.65334 26.28667 47.32333 26.95 44.51 26.95C 42.24333 26.95 40.00333 26.52 37.79 25.66C 37.06334 25.37333 36.42667 25.04333 35.88 24.67L35.88 24.67L36.09 18.14L36.17 18.09C 37.78333 20.87667 40.43333 22.27 44.12 22.27C 46.74 22.27 48.47334 21.63667 49.32 20.37C 49.60667 19.94333 49.75 19.46667 49.75 18.94C 49.75 18.40667 49.66334 17.97 49.49 17.63C 49.32333 17.28333 49.04333 16.98667 48.65 16.74C 47.89667 16.24667 46.62667 15.91333 44.84 15.74C 43.06 15.57333 41.60333 15.25667 40.47 14.79C 39.33667 14.31667 38.43 13.73667 37.75 13.05C 36.53 11.79667 35.92 10.05 35.92 7.81C 35.92 5.496667 36.73333 3.623333 38.36 2.19C 40.01334 0.73 42.24333 0 45.05 0C 47.85667 0 50.31333 0.6433333 52.42 1.93zM75.72 1.93L75.35 7.68L75.21 7.71C 74.25 6.27 72.61 5.333334 70.29 4.9C 69.56333 4.76 68.86333 4.69 68.19 4.69C 67.52334 4.69 66.95 4.746667 66.47 4.86C 65.99667 4.98 65.59 5.15 65.25 5.37C 64.53667 5.836667 64.18 6.450001 64.18 7.21C 64.18 8.196667 64.49333 8.936666 65.12 9.43C 65.90001 10.03 67.19334 10.45 69 10.69C 70.81334 10.93 72.26667 11.26 73.36 11.68C 74.45334 12.09333 75.35001 12.62 76.05 13.26C 77.38334 14.46 78.05 16.15334 78.05 18.34C 78.05 21.20667 76.96667 23.41333 74.8 24.96C 72.95334 26.28667 70.62334 26.95 67.81 26.95C 65.54333 26.95 63.30334 26.52 61.09 25.66C 60.36333 25.37333 59.72667 25.04333 59.18 24.67L59.18 24.67L59.39 18.14L59.47 18.09C 61.08334 20.87667 63.73334 22.27 67.42 22.27C 70.04 22.27 71.77333 21.63667 72.62 20.37C 72.90668 19.94333 73.05 19.46667 73.05 18.94C 73.05 18.40667 72.96334 17.97 72.79 17.63C 72.62334 17.28333 72.34334 16.98667 71.95 16.74C 71.19667 16.24667 69.92667 15.91333 68.14 15.74C 66.36 15.57333 64.90334 15.25667 63.77 14.79C 62.63667 14.31667 61.73 13.73667 61.05 13.05C 59.83 11.79667 59.22001 10.05 59.22 7.81C 59.22001 5.496667 60.03334 3.623333 61.66 2.19C 63.31334 0.73 65.54333 0 68.35 0C 71.15666 0 73.61333 0.6433333 75.72 1.93zM85.47 23.38C 84.28334 22.24667 83.35001 20.88667 82.67 19.3C 81.98334 17.70667 81.64 15.96333 81.64 14.07C 81.64 12.17667 81.96 10.38333 82.6 8.69C 83.23334 6.996667 84.14334 5.506667 85.33 4.22C 86.51667 2.933333 87.95 1.906667 89.63 1.14C 91.31 0.38 93.19 0 95.27 0C 98.86334 0 101.8933 1.133333 104.36 3.4C 106.9867 5.820001 108.3 9.086667 108.3 13.2C 108.3 17.18667 106.9467 20.5 104.24 23.14C 102.5733 24.77333 100.5867 25.89334 98.28 26.5C 97.14668 26.8 95.82334 26.95 94.31 26.95C 92.79 26.95 91.23334 26.64 89.64 26.02C 88.04667 25.39334 86.65667 24.51333 85.47 23.38zM87.07 13.81C 87.07001 15.02333 87.27334 16.13667 87.68 17.15C 88.08 18.16333 88.64 19.03667 89.36 19.77C 90.88 21.30333 92.83667 22.07 95.23 22.07C 97.51001 22.07 99.34 21.33333 100.72 19.86C 102.1267 18.34 102.83 16.26333 102.83 13.63C 102.83 11.15667 102.16 9.093334 100.82 7.44C 99.37334 5.673333 97.39334 4.79 94.88 4.79C 92.44667 4.79 90.51334 5.686666 89.08 7.48C 87.74001 9.16 87.07001 11.27 87.07 13.81zM118.59 26.46L113.5 26.46C 113.5733 26.02 113.61 25.54 113.61 25.02L113.61 25.02L113.61 0.49L117.52 0.49L127.87 16.78L127.87 1.82C 127.87 1.1 127.8067 0.6566667 127.68 0.49L127.68 0.49L132.95 0.49C 132.8833 1.01 132.85 1.583333 132.85 2.21L132.85 2.21L132.85 26.46L128.79 26.46L118.59 10.82L118.59 26.46z" stroke="none" fill="#017D91" fill-rule="nonzero" />
	<g transform="matrix(1.000206 0 0 1.003597 150.544 108.9505)">
	</g>
    <path transform="matrix(1.000206 0 0 1.003597 150.544 108.9505)"  d="M16.54 1.93L16.17 7.68L16.04 7.71C 15.07333 6.27 13.43 5.333334 11.11 4.9C 10.38333 4.76 9.683334 4.69 9.01 4.69C 8.343334 4.69 7.77 4.746667 7.29 4.86C 6.816667 4.98 6.41 5.15 6.07 5.37C 5.356667 5.836667 5 6.450001 5 7.21C 5 8.196667 5.313334 8.936666 5.94 9.43C 6.72 10.03 8.013333 10.45 9.82 10.69C 11.63333 10.93 13.08667 11.26 14.18 11.68C 15.27333 12.09333 16.17333 12.62 16.88 13.26C 18.20667 14.46 18.87 16.15334 18.87 18.34C 18.87 21.20667 17.79 23.41333 15.63 24.96C 13.77667 26.28667 11.44333 26.95 8.63 26.95C 6.363334 26.95 4.123333 26.52 1.91 25.66C 1.183333 25.37333 0.5466667 25.04333 0 24.67L0 24.67L0.21 18.14L0.29 18.09C 1.903333 20.87667 4.553333 22.27 8.24 22.27C 10.86 22.27 12.59333 21.63667 13.44 20.37C 13.72667 19.94333 13.87 19.46667 13.87 18.94C 13.87 18.40667 13.78333 17.97 13.61 17.63C 13.44333 17.28333 13.16333 16.98667 12.77 16.74C 12.01667 16.24667 10.74667 15.91333 8.96 15.74C 7.18 15.57333 5.723334 15.25667 4.59 14.79C 3.456667 14.31667 2.553333 13.73667 1.88 13.05C 0.6533333 11.79667 0.04 10.05 0.04 7.81C 0.04 5.496667 0.8533334 3.623333 2.48 2.19C 4.133334 0.73 6.363334 0 9.17 0C 11.97667 0 14.43333 0.6433333 16.54 1.93zM35.8 0C 38.23333 0 40.31 0.4233333 42.03 1.27L42.03 1.27L42.03 7.25L41.99 7.29C 41.26334 6.17 39.72667 5.426667 37.38 5.06C 36.69334 4.940001 35.82333 4.88 34.77 4.88C 33.71 4.88 32.67333 5.08 31.66 5.48C 30.64667 5.873334 29.81334 6.436667 29.16 7.17C 27.9 8.59 27.27 10.61333 27.27 13.24C 27.27 16.3 28.07 18.58 29.67 20.08C 30.99667 21.32667 32.75333 21.95 34.94 21.95C 37.41333 21.95 39.42 21.42333 40.96 20.37C 41.52 19.99 41.99333 19.52 42.38 18.96L42.38 18.96L42.44 19L42.44 24.47C 40.44667 26.12333 37.76334 26.95 34.39 26.95C 30.42333 26.95 27.31334 25.68667 25.06 23.16C 22.9 20.75333 21.82 17.56333 21.82 13.59C 21.82 9.39 23.00333 6.076667 25.37 3.65C 27.76333 1.216667 31.24 0 35.8 0zM52.64 15.43L52.64 26.58C 51.38667 26.5 49.9 26.46 48.18 26.46L48.18 26.46L47.56 26.46L47.56 0.39C 48.36667 0.4566667 48.94 0.49 49.28 0.49L49.28 0.49L50.08 0.49C 51.10667 0.49 51.96 0.4366667 52.64 0.33L52.64 0.33L52.64 10.74L61.82 10.74L61.82 0.39C 62.9 0.4566667 63.95 0.49 64.97 0.49C 65.99001 0.49 66.63 0.4366667 66.89 0.33L66.89 0.33L66.89 26.58C 66.27 26.5 65.03334 26.46 63.18 26.46L63.18 26.46L61.82 26.46L61.82 15.43L52.64 15.43zM79.1 21.78L87.07 21.78C 87.87666 21.78 88.43667 21.7 88.75 21.54L88.75 21.54L88.83 21.56L88.63 26.46L74 26.46L74 0.35C 74.35333 0.3766667 74.74667 0.3966666 75.18 0.41L75.18 0.41L76.54 0.45C 77.45334 0.4766667 78.44334 0.49 79.51 0.49C 82.49001 0.49 85.44 0.4366667 88.36 0.33C 88.21333 1.476667 88.14 3.006667 88.14 4.92C 88.14 5.126667 88.15334 5.283333 88.18 5.39L88.18 5.39L88.14 5.45C 87.46667 5.256667 86.50333 5.16 85.25 5.16L85.25 5.16L79.1 5.16L79.1 10.14L83.73 10.14C 85.16334 10.14 86.02333 10.1 86.31 10.02L86.31 10.02L86.37 14.84C 85.74333 14.78 84.93667 14.75 83.95 14.75L83.95 14.75L79.1 14.75L79.1 21.78zM100.37 26.95C 98.26334 26.95 96.27667 26.78333 94.41 26.45L94.41 26.45L94.41 0.31C 96.13 0.1033333 98.12667 0 100.4 0C 102.6733 0 104.73 0.31 106.57 0.93C 108.4167 1.55 109.9567 2.43 111.19 3.57C 113.69 5.863334 114.94 9.073334 114.94 13.2C 114.94 17.82667 113.5467 21.33667 110.76 23.73C 108.26 25.87667 104.7967 26.95 100.37 26.95zM99.49 4.79L99.49 22.19C 100.3367 22.34333 101.1833 22.42 102.03 22.42C 102.8767 22.42 103.79 22.25333 104.77 21.92C 105.7433 21.59333 106.5867 21.07667 107.3 20.37C 108.84 18.88333 109.61 16.72333 109.61 13.89C 109.61 9.223333 107.91 6.356667 104.51 5.29C 103.39 4.943334 102.0967 4.77 100.63 4.77L100.63 4.77L100.1 4.77C 99.90001 4.77 99.69667 4.776667 99.49 4.79zM135.49 16.21L135.49 0.39C 136.2967 0.4566667 136.9667 0.49 137.5 0.49L137.5 0.49L139.12 0.49C 139.6667 0.49 140.24 0.4366667 140.84 0.33L140.84 0.33L140.84 16.48C 140.84 19.68667 139.87 22.26 137.93 24.2C 136.0967 26.03333 133.7933 26.95 131.02 26.95C 127.98 26.95 125.5233 26.16333 123.65 24.59C 121.5567 22.81667 120.51 20.26333 120.51 16.93L120.51 16.93L120.51 0.39C 121.59 0.4566667 122.6067 0.49 123.56 0.49C 124.52 0.49 125.3133 0.4366667 125.94 0.33L125.94 0.33L125.94 17.19C 125.94 18.83 126.44 20.10667 127.44 21.02C 128.38 21.85333 129.5533 22.27 130.96 22.27C 133.04 22.27 134.4267 21.2 135.12 19.06C 135.3667 18.29333 135.49 17.34333 135.49 16.21zM153.07 26.46L151.21 26.46C 149.2967 26.46 148.0267 26.5 147.4 26.58L147.4 26.58L147.4 0.37C 147.7133 0.45 148.3633 0.49 149.35 0.49C 150.33 0.49 151.47 0.4633334 152.77 0.41L152.77 0.41L152.77 21.78L156.82 21.78C 157.9867 21.78 158.9233 21.74 159.63 21.66C 159.5367 24.70667 159.49 26.29 159.49 26.41L159.49 26.41L159.49 26.6C 158.2167 26.50667 156.0767 26.46 153.07 26.46zM164.71 26.46L164.71 0.41C 166.01 0.4633334 166.7967 0.49 167.07 0.49L167.07 0.49L168.48 0.49C 169.1667 0.49 169.72 0.4366667 170.14 0.33L170.14 0.33L170.12 26.46L164.71 26.46zM182.73 26.46L177.64 26.46C 177.7133 26.02 177.75 25.54 177.75 25.02L177.75 25.02L177.75 0.49L181.66 0.49L192.01 16.78L192.01 1.82C 192.01 1.1 191.9467 0.6566667 191.82 0.49L191.82 0.49L197.09 0.49C 197.0233 1.01 196.99 1.583333 196.99 2.21L196.99 2.21L196.99 26.46L192.93 26.46L182.73 10.82L182.73 26.46zM225.35 10.76L225.41 10.8C 225.1633 11.24 225.04 12.3 225.04 13.98L225.04 13.98L225.04 20.04C 225.04 21.87333 224.09 23.46667 222.19 24.82C 220.2233 26.24 217.8133 26.95 214.96 26.95C 211 26.95 207.8434 25.70667 205.49 23.22C 203.21 20.85333 202.07 17.83333 202.07 14.16C 202.07 10.25333 203.23 6.996667 205.55 4.39C 208.1367 1.463333 211.7033 0 216.25 0C 219.2834 0 221.6867 0.5866667 223.46 1.76L223.46 1.76L223.14 7.52L222.99 7.56C 222.53 6.766667 221.63 6.116667 220.29 5.61C 219.0167 5.123334 217.68 4.88 216.28 4.88C 214.88 4.88 213.6567 5.103333 212.61 5.55C 211.5633 5.990001 210.6733 6.62 209.94 7.44C 208.4067 9.120001 207.64 11.34 207.64 14.1C 207.64 16.50667 208.3167 18.44 209.67 19.9C 211.0233 21.34667 212.7667 22.07 214.9 22.07C 217.26 22.07 218.85 21.45667 219.67 20.23C 219.93 19.84333 220.06 19.40333 220.06 18.91L220.06 18.91L220.06 15.66L217.54 15.66C 216.1867 15.66 215.45 15.78 215.33 16.02L215.33 16.02L215.27 16L215.1 10.9C 215.46 11 216.9367 11.05 219.53 11.05L219.53 11.05L221.84 11.05C 223.2667 11.05 224.4367 10.95333 225.35 10.76z" stroke="none" fill="#017D91" fill-rule="nonzero" />
</g>
</svg>