<?xml version="1.0" standalone="no"?>
<svg xmlns="http://www.w3.org/2000/svg" width="375.92264792109125" height="135.51249167109125" viewBox="0 0 375.92264792109125 135.51249167109125"><g fill="#60D69A" color="#60D69A" transform="translate(0 0) scale(1.355125)"><svg width="100.0" height="100.0" x="0.0" y="0.0" viewBox="0 0 100 100"><g><path fill="none" d="M40.689,81.426c2.645,3.43,5.305,5.913,7.269,7.522V73.446c-3.977,0.134-7.796,0.66-11.445,1.574   C37.728,77.244,39.115,79.383,40.689,81.426z"></path><path fill="none" d="M34.665,71.252c4.226-1.13,8.662-1.775,13.294-1.92V52.814H30.493C30.8,59.44,32.196,65.603,34.665,71.252z"></path><path fill="none" d="M37.578,84.074c-1.658-2.133-3.415-4.763-5.039-7.881c-3.357,1.145-6.555,2.637-9.579,4.481   c5.643,4.98,12.662,8.432,20.41,9.7C41.607,88.754,39.595,86.67,37.578,84.074z"></path><path fill="none" d="M30.444,48.734h17.515V30.668c-4.632-0.145-9.068-0.79-13.293-1.92C32.005,34.835,30.592,41.519,30.444,48.734   z"></path><path fill="none" d="M26.403,52.814H9.189c0.654,9.576,4.61,18.256,10.745,24.905c3.414-2.177,7.033-3.932,10.839-5.268   C28.493,67.092,26.749,60.558,26.403,52.814z"></path><path fill="none" d="M37.578,15.925c2.016-2.594,4.026-4.678,5.789-6.297c-7.746,1.268-14.763,4.718-20.405,9.697   c3.024,1.844,6.222,3.336,9.578,4.481C34.163,20.688,35.92,18.059,37.578,15.925z"></path><path fill="none" d="M40.689,18.574c-1.574,2.043-2.96,4.182-4.174,6.406c3.648,0.914,7.467,1.439,11.444,1.573V11.052   C45.995,12.66,43.334,15.143,40.689,18.574z"></path><path fill="none" d="M30.773,27.548c-3.806-1.336-7.424-3.091-10.838-5.268C13.47,29.286,9.425,38.547,9.113,48.734h17.254   C26.536,40.313,28.344,33.259,30.773,27.548z"></path><path fill="none" d="M62.42,84.074c-2.016,2.596-4.027,4.681-5.79,6.3c7.747-1.268,14.765-4.719,20.408-9.699   c-3.025-1.845-6.222-3.337-9.579-4.482C65.835,79.311,64.077,81.94,62.42,84.074z"></path><path fill="none" d="M63.486,75.02c-3.65-0.915-7.469-1.44-11.447-1.574v15.503c1.963-1.608,4.625-4.092,7.272-7.523   C60.885,79.383,62.271,77.244,63.486,75.02z"></path><path fill="none" d="M69.225,27.548c2.429,5.711,4.237,12.765,4.406,21.186h17.255c-0.312-10.188-4.357-19.448-10.822-26.454   C76.649,24.457,73.031,26.213,69.225,27.548z"></path><path fill="none" d="M69.224,72.452c3.807,1.336,7.426,3.091,10.84,5.267c6.135-6.649,10.091-15.329,10.745-24.905H73.594   C73.249,60.559,71.504,67.092,69.224,72.452z"></path><path fill="none" d="M62.42,15.925c1.657,2.134,3.415,4.764,5.039,7.881c3.357-1.145,6.554-2.636,9.579-4.48   c-5.642-4.979-12.659-8.43-20.405-9.698C58.395,11.247,60.405,13.331,62.42,15.925z"></path><path fill="none" d="M65.303,28.757c-4.217,1.125-8.643,1.767-13.264,1.912v18.066H69.55   C69.379,40.747,67.628,34.098,65.303,28.757z"></path><path fill="none" d="M59.197,18.43c-2.621-3.375-5.229-5.808-7.158-7.388v15.511c3.97-0.134,7.781-0.657,11.423-1.568   C62.073,22.421,60.596,20.231,59.197,18.43z"></path><path fill="none" d="M69.508,52.814H52.039v16.517c4.633,0.145,9.069,0.79,13.296,1.921C67.805,65.604,69.201,59.44,69.508,52.814z   "></path><path d="M94.982,50.6c0.003-0.2,0.015-0.398,0.015-0.599c0-12.293-4.958-23.445-12.974-31.574c-0.118-0.16-0.256-0.294-0.407-0.409   C73.483,9.976,62.313,5.001,49.999,5.001c-12.323,0-23.502,4.983-31.637,13.035c-0.129,0.101-0.246,0.217-0.351,0.352   C9.974,26.52,5,37.689,5,50.001c0,0.214,0.013,0.425,0.016,0.638c-0.003,0.046-0.014,0.09-0.014,0.137   c0,0.079,0.014,0.153,0.023,0.229c0.263,11.881,5.144,22.641,12.928,30.545c0.126,0.177,0.279,0.323,0.445,0.447   c8.131,8.031,19.293,13,31.596,13.001c0,0,0.001,0,0.001,0c0,0,0,0,0.001,0c0.001,0,0.002,0,0.003,0c0,0,0.001,0,0.001,0   c0,0,0,0,0,0s0,0,0,0c12.312,0,23.48-4.974,31.613-13.013c0.156-0.118,0.299-0.255,0.419-0.421   c7.777-7.891,12.659-18.631,12.938-30.493c0.014-0.097,0.03-0.194,0.03-0.294C95,50.716,94.987,50.659,94.982,50.6z M43.366,9.628   c-1.762,1.619-3.773,3.702-5.789,6.297c-1.657,2.134-3.415,4.763-5.038,7.881c-3.356-1.145-6.553-2.636-9.578-4.481   C28.604,14.347,35.621,10.896,43.366,9.628z M19.935,22.28c3.414,2.176,7.032,3.932,10.838,5.268   c-2.429,5.711-4.237,12.765-4.406,21.186H9.113C9.425,38.547,13.47,29.286,19.935,22.28z M9.189,52.814h17.215   c0.345,7.744,2.09,14.277,4.369,19.637c-3.806,1.335-7.425,3.091-10.839,5.268C13.799,71.071,9.843,62.39,9.189,52.814z    M22.96,80.674c3.025-1.844,6.222-3.336,9.579-4.481c1.623,3.118,3.381,5.747,5.039,7.881c2.017,2.596,4.029,4.681,5.792,6.3   C35.622,89.106,28.603,85.655,22.96,80.674z M47.959,88.948c-1.964-1.609-4.624-4.092-7.269-7.522   c-1.574-2.043-2.961-4.182-4.176-6.406c3.649-0.914,7.467-1.44,11.445-1.574V88.948z M47.959,69.332   c-4.632,0.145-9.068,0.79-13.294,1.92c-2.469-5.649-3.865-11.812-4.172-18.437h17.465V69.332z M47.959,48.734H30.444   c0.148-7.215,1.561-13.899,4.221-19.986c4.226,1.13,8.661,1.775,13.293,1.92V48.734z M47.959,26.553   c-3.977-0.134-7.796-0.659-11.444-1.573c1.214-2.224,2.601-4.363,4.174-6.406c2.645-3.431,5.305-5.914,7.269-7.522V26.553z    M77.038,19.326c-3.025,1.844-6.223,3.336-9.579,4.48c-1.623-3.118-3.381-5.747-5.039-7.881c-2.015-2.594-4.025-4.678-5.787-6.297   C64.378,10.897,71.396,14.347,77.038,19.326z M52.039,11.042c1.929,1.579,4.537,4.013,7.158,7.388   c1.4,1.801,2.876,3.991,4.265,6.555c-3.642,0.911-7.454,1.434-11.423,1.568V11.042z M52.039,30.668   c4.621-0.144,9.047-0.786,13.264-1.912c2.325,5.341,4.076,11.991,4.248,19.978H52.039V30.668z M52.039,52.814h17.469   c-0.306,6.626-1.703,12.789-4.173,18.438c-4.227-1.131-8.664-1.776-13.296-1.921V52.814z M52.039,88.949V73.446   c3.978,0.134,7.798,0.66,11.447,1.574c-1.215,2.224-2.601,4.363-4.176,6.406C56.664,84.857,54.002,87.341,52.039,88.949z    M56.63,90.373c1.763-1.619,3.774-3.704,5.79-6.3c1.657-2.133,3.415-4.763,5.039-7.881c3.357,1.145,6.554,2.637,9.579,4.482   C71.395,85.655,64.376,89.105,56.63,90.373z M80.064,77.72c-3.414-2.176-7.033-3.932-10.84-5.267   c2.28-5.36,4.024-11.894,4.37-19.638H90.81C90.156,62.39,86.199,71.071,80.064,77.72z M73.63,48.734   c-0.169-8.421-1.977-15.475-4.406-21.186c3.806-1.335,7.424-3.091,10.839-5.268c6.464,7.006,10.51,16.266,10.822,26.454H73.63z"></path></g></svg></g><path fill="#017D91" fill-rule="nonzero" d="M3.83 23.38Q2.05 21.68 1.03 19.30Q0 16.91 0 14.07Q0 11.23 0.96 8.69Q1.91 6.15 3.69 4.22Q5.47 2.29 7.99 1.14Q10.51 0 13.63 0L13.63 0Q19.02 0 22.71 3.40L22.71 3.40Q26.66 7.03 26.66 13.20L26.66 13.20Q26.66 19.18 22.60 23.14L22.60 23.14Q20.10 25.59 16.64 26.50L16.64 26.50Q14.94 26.95 12.67 26.95Q10.39 26.95 8.00 26.02Q5.61 25.08 3.83 23.38ZM5.43 13.81L5.43 13.81Q5.43 15.63 6.04 17.15Q6.64 18.67 7.71 19.77L7.71 19.77Q10 22.07 13.59 22.07L13.59 22.07Q17.01 22.07 19.08 19.86L19.08 19.86Q21.19 17.58 21.19 13.63L21.19 13.63Q21.19 9.92 19.18 7.44L19.18 7.44Q17.01 4.79 13.24 4.79L13.24 4.79Q9.59 4.79 7.44 7.48L7.44 7.48Q5.43 10 5.43 13.81ZM36.95 26.46L31.86 26.46Q31.97 25.80 31.97 25.02L31.97 25.02L31.97 0.49L35.88 0.49L46.23 16.78L46.23 1.82Q46.23 0.74 46.04 0.49L46.04 0.49L51.31 0.49Q51.21 1.27 51.21 2.21L51.21 2.21L51.21 26.46L47.15 26.46L36.95 10.82L36.95 26.46ZM63.89 26.46L62.03 26.46Q59.16 26.46 58.22 26.58L58.22 26.58L58.22 0.37Q58.69 0.49 60.17 0.49Q61.64 0.49 63.59 0.41L63.59 0.41L63.59 21.78L67.64 21.78Q69.39 21.78 70.45 21.66L70.45 21.66Q70.31 26.23 70.31 26.41L70.31 26.41L70.31 26.60Q68.40 26.46 63.89 26.46L63.89 26.46ZM75.53 26.46L75.53 0.41Q77.48 0.49 77.89 0.49L77.89 0.49L79.30 0.49Q80.33 0.49 80.96 0.33L80.96 0.33L80.94 26.46L75.53 26.46ZM93.55 26.46L88.46 26.46Q88.57 25.80 88.57 25.02L88.57 25.02L88.57 0.49L92.48 0.49L102.83 16.78L102.83 1.82Q102.83 0.74 102.64 0.49L102.64 0.49L107.91 0.49Q107.81 1.27 107.81 2.21L107.81 2.21L107.81 26.46L103.75 26.46L93.55 10.82L93.55 26.46ZM119.92 21.78L127.89 21.78Q129.10 21.78 129.57 21.54L129.57 21.54L129.65 21.56L129.45 26.46L114.82 26.46L114.82 0.35Q115.35 0.39 116.00 0.41L116.00 0.41L117.36 0.45Q118.73 0.49 120.33 0.49L120.33 0.49Q124.80 0.49 129.18 0.33L129.18 0.33Q128.96 2.05 128.96 4.92L128.96 4.92Q128.96 5.23 129.00 5.39L129.00 5.39L128.96 5.45Q127.95 5.16 126.07 5.16L126.07 5.16L119.92 5.16L119.92 10.14L124.55 10.14Q126.70 10.14 127.13 10.02L127.13 10.02L127.19 14.84Q126.25 14.75 124.77 14.75L124.77 14.75L119.92 14.75L119.92 21.78Z" transform="translate(150.513 0) scale(1.739)"></path><path fill="#017D91" fill-rule="nonzero" d="M5.66 26.46L3.81 26.46Q0.94 26.46 0 26.58L0 26.58L0 0.37Q0.47 0.49 1.94 0.49Q3.42 0.49 5.37 0.41L5.37 0.41L5.37 21.78L9.41 21.78Q11.17 21.78 12.23 21.66L12.23 21.66Q12.09 26.23 12.09 26.41L12.09 26.41L12.09 26.60Q10.18 26.46 5.66 26.46L5.66 26.46ZM21.80 21.78L29.77 21.78Q30.98 21.78 31.45 21.54L31.45 21.54L31.52 21.56L31.33 26.46L16.70 26.46L16.70 0.35Q17.23 0.39 17.87 0.41L17.87 0.41L19.24 0.45Q20.61 0.49 22.21 0.49L22.21 0.49Q26.68 0.49 31.05 0.33L31.05 0.33Q30.84 2.05 30.84 4.92L30.84 4.92Q30.84 5.23 30.88 5.39L30.88 5.39L30.84 5.45Q29.82 5.16 27.95 5.16L27.95 5.16L21.80 5.16L21.80 10.14L26.43 10.14Q28.57 10.14 29.00 10.02L29.00 10.02L29.06 14.84Q28.13 14.75 26.64 14.75L26.64 14.75L21.80 14.75L21.80 21.78ZM52.42 1.93L52.42 1.93L52.05 7.68L51.91 7.71Q50.47 5.55 46.99 4.90L46.99 4.90Q45.90 4.69 44.89 4.69Q43.89 4.69 43.17 4.86Q42.46 5.04 41.95 5.37L41.95 5.37Q40.88 6.07 40.88 7.21L40.88 7.21Q40.88 8.69 41.82 9.43L41.82 9.43Q42.99 10.33 45.70 10.69Q48.42 11.05 50.06 11.68Q51.70 12.30 52.75 13.26L52.75 13.26Q54.75 15.06 54.75 18.34L54.75 18.34Q54.75 22.64 51.50 24.96L51.50 24.96Q48.73 26.95 44.51 26.95L44.51 26.95Q41.11 26.95 37.79 25.66L37.79 25.66Q36.70 25.23 35.88 24.67L35.88 24.67L36.09 18.14L36.17 18.09Q38.59 22.27 44.12 22.27L44.12 22.27Q48.05 22.27 49.32 20.37L49.32 20.37Q49.75 19.73 49.75 18.94Q49.75 18.14 49.49 17.63Q49.24 17.11 48.65 16.74L48.65 16.74Q47.52 16.00 44.84 15.74Q42.17 15.49 40.47 14.79Q38.77 14.08 37.75 13.05L37.75 13.05Q35.92 11.17 35.92 7.81L35.92 7.81Q35.92 4.34 38.36 2.19L38.36 2.19Q40.84 0 45.05 0Q49.26 0 52.42 1.93ZM75.72 1.93L75.72 1.93L75.35 7.68L75.21 7.71Q73.77 5.55 70.29 4.90L70.29 4.90Q69.20 4.69 68.19 4.69Q67.19 4.69 66.47 4.86Q65.76 5.04 65.25 5.37L65.25 5.37Q64.18 6.07 64.18 7.21L64.18 7.21Q64.18 8.69 65.12 9.43L65.12 9.43Q66.29 10.33 69.00 10.69Q71.72 11.05 73.36 11.68Q75 12.30 76.05 13.26L76.05 13.26Q78.05 15.06 78.05 18.34L78.05 18.34Q78.05 22.64 74.80 24.96L74.80 24.96Q72.03 26.95 67.81 26.95L67.81 26.95Q64.41 26.95 61.09 25.66L61.09 25.66Q60 25.23 59.18 24.67L59.18 24.67L59.39 18.14L59.47 18.09Q61.89 22.27 67.42 22.27L67.42 22.27Q71.35 22.27 72.62 20.37L72.62 20.37Q73.05 19.73 73.05 18.94Q73.05 18.14 72.79 17.63Q72.54 17.11 71.95 16.74L71.95 16.74Q70.82 16.00 68.14 15.74Q65.47 15.49 63.77 14.79Q62.07 14.08 61.05 13.05L61.05 13.05Q59.22 11.17 59.22 7.81L59.22 7.81Q59.22 4.34 61.66 2.19L61.66 2.19Q64.14 0 68.35 0Q72.56 0 75.72 1.93ZM85.47 23.38Q83.69 21.68 82.67 19.30Q81.64 16.91 81.64 14.07Q81.64 11.23 82.60 8.69Q83.55 6.15 85.33 4.22Q87.11 2.29 89.63 1.14Q92.15 0 95.27 0L95.27 0Q100.66 0 104.36 3.40L104.36 3.40Q108.30 7.03 108.30 13.20L108.30 13.20Q108.30 19.18 104.24 23.14L104.24 23.14Q101.74 25.59 98.28 26.50L98.28 26.50Q96.58 26.95 94.31 26.95Q92.03 26.95 89.64 26.02Q87.25 25.08 85.47 23.38ZM87.07 13.81L87.07 13.81Q87.07 15.63 87.68 17.15Q88.28 18.67 89.36 19.77L89.36 19.77Q91.64 22.07 95.23 22.07L95.23 22.07Q98.65 22.07 100.72 19.86L100.72 19.86Q102.83 17.58 102.83 13.63L102.83 13.63Q102.83 9.92 100.82 7.44L100.82 7.44Q98.65 4.79 94.88 4.79L94.88 4.79Q91.23 4.79 89.08 7.48L89.08 7.48Q87.07 10 87.07 13.81ZM118.59 26.46L113.50 26.46Q113.61 25.80 113.61 25.02L113.61 25.02L113.61 0.49L117.52 0.49L127.87 16.78L127.87 1.82Q127.87 0.74 127.68 0.49L127.68 0.49L132.95 0.49Q132.85 1.27 132.85 2.21L132.85 2.21L132.85 26.46L128.79 26.46L118.59 10.82L118.59 26.46Z" transform="translate(150.513 54.862) scale(1.696)"></path><path fill="#017D91" fill-rule="nonzero" d="M16.54 1.93L16.54 1.93L16.17 7.68L16.04 7.71Q14.59 5.55 11.11 4.90L11.11 4.90Q10.02 4.69 9.01 4.69Q8.01 4.69 7.29 4.86Q6.58 5.04 6.07 5.37L6.07 5.37Q5 6.07 5 7.21L5 7.21Q5 8.69 5.94 9.43L5.94 9.43Q7.11 10.33 9.82 10.69Q12.54 11.05 14.18 11.68Q15.82 12.30 16.88 13.26L16.88 13.26Q18.87 15.06 18.87 18.34L18.87 18.34Q18.87 22.64 15.63 24.96L15.63 24.96Q12.85 26.95 8.63 26.95L8.63 26.95Q5.23 26.95 1.91 25.66L1.91 25.66Q0.82 25.23 0 24.67L0 24.67L0.21 18.14L0.29 18.09Q2.71 22.27 8.24 22.27L8.24 22.27Q12.17 22.27 13.44 20.37L13.44 20.37Q13.87 19.73 13.87 18.94Q13.87 18.14 13.61 17.63Q13.36 17.11 12.77 16.74L12.77 16.74Q11.64 16.00 8.96 15.74Q6.29 15.49 4.59 14.79Q2.89 14.08 1.88 13.05L1.88 13.05Q0.04 11.17 0.04 7.81L0.04 7.81Q0.04 4.34 2.48 2.19L2.48 2.19Q4.96 0 9.17 0Q13.38 0 16.54 1.93ZM35.80 0L35.80 0Q39.45 0 42.03 1.27L42.03 1.27L42.03 7.25L41.99 7.29Q40.90 5.61 37.38 5.06L37.38 5.06Q36.35 4.88 34.77 4.88Q33.18 4.88 31.66 5.48Q30.14 6.07 29.16 7.17L29.16 7.17Q27.27 9.30 27.27 13.24L27.27 13.24Q27.27 17.83 29.67 20.08L29.67 20.08Q31.66 21.95 34.94 21.95L34.94 21.95Q38.65 21.95 40.96 20.37L40.96 20.37Q41.80 19.80 42.38 18.96L42.38 18.96L42.44 19.00L42.44 24.47Q39.45 26.95 34.39 26.95L34.39 26.95Q28.44 26.95 25.06 23.16L25.06 23.16Q21.82 19.55 21.82 13.59L21.82 13.59Q21.82 7.29 25.37 3.65L25.37 3.65Q28.96 0 35.80 0ZM52.64 15.43L52.64 26.58Q50.76 26.46 48.18 26.46L48.18 26.46L47.56 26.46L47.56 0.39Q48.77 0.49 49.28 0.49L49.28 0.49L50.08 0.49Q51.62 0.49 52.64 0.33L52.64 0.33L52.64 10.74L61.82 10.74L61.82 0.39Q63.44 0.49 64.97 0.49Q66.50 0.49 66.89 0.33L66.89 0.33L66.89 26.58Q65.96 26.46 63.18 26.46L63.18 26.46L61.82 26.46L61.82 15.43L52.64 15.43ZM79.10 21.78L87.07 21.78Q88.28 21.78 88.75 21.54L88.75 21.54L88.83 21.56L88.63 26.46L74.00 26.46L74.00 0.35Q74.53 0.39 75.18 0.41L75.18 0.41L76.54 0.45Q77.91 0.49 79.51 0.49L79.51 0.49Q83.98 0.49 88.36 0.33L88.36 0.33Q88.14 2.05 88.14 4.92L88.14 4.92Q88.14 5.23 88.18 5.39L88.18 5.39L88.14 5.45Q87.13 5.16 85.25 5.16L85.25 5.16L79.10 5.16L79.10 10.14L83.73 10.14Q85.88 10.14 86.31 10.02L86.31 10.02L86.37 14.84Q85.43 14.75 83.95 14.75L83.95 14.75L79.10 14.75L79.10 21.78ZM100.37 26.95L100.37 26.95Q97.21 26.95 94.41 26.45L94.41 26.45L94.41 0.31Q96.99 0 100.40 0Q103.81 0 106.57 0.93Q109.34 1.86 111.19 3.57L111.19 3.57Q114.94 7.01 114.94 13.20L114.94 13.20Q114.94 20.14 110.76 23.73L110.76 23.73Q107.01 26.95 100.37 26.95ZM99.49 4.79L99.49 22.19Q100.76 22.42 102.03 22.42Q103.30 22.42 104.77 21.92Q106.23 21.43 107.30 20.37L107.30 20.37Q109.61 18.14 109.61 13.89L109.61 13.89Q109.61 6.89 104.51 5.29L104.51 5.29Q102.83 4.77 100.63 4.77L100.63 4.77L100.10 4.77Q99.80 4.77 99.49 4.79L99.49 4.79ZM135.49 16.21L135.49 0.39Q136.70 0.49 137.50 0.49L137.50 0.49L139.12 0.49Q139.94 0.49 140.84 0.33L140.84 0.33L140.84 16.48Q140.84 21.29 137.93 24.20L137.93 24.20Q135.18 26.95 131.02 26.95L131.02 26.95Q126.46 26.95 123.65 24.59L123.65 24.59Q120.51 21.93 120.51 16.93L120.51 16.93L120.51 0.39Q122.13 0.49 123.56 0.49Q125 0.49 125.94 0.33L125.94 0.33L125.94 17.19Q125.94 19.65 127.44 21.02L127.44 21.02Q128.85 22.27 130.96 22.27L130.96 22.27Q134.08 22.27 135.12 19.06L135.12 19.06Q135.49 17.91 135.49 16.21L135.49 16.21ZM153.07 26.46L151.21 26.46Q148.34 26.46 147.40 26.58L147.40 26.58L147.40 0.37Q147.87 0.49 149.35 0.49Q150.82 0.49 152.77 0.41L152.77 0.41L152.77 21.78L156.82 21.78Q158.57 21.78 159.63 21.66L159.63 21.66Q159.49 26.23 159.49 26.41L159.49 26.41L159.49 26.60Q157.58 26.46 153.07 26.46L153.07 26.46ZM164.71 26.46L164.71 0.41Q166.66 0.49 167.07 0.49L167.07 0.49L168.48 0.49Q169.51 0.49 170.14 0.33L170.14 0.33L170.12 26.46L164.71 26.46ZM182.73 26.46L177.64 26.46Q177.75 25.80 177.75 25.02L177.75 25.02L177.75 0.49L181.66 0.49L192.01 16.78L192.01 1.82Q192.01 0.74 191.82 0.49L191.82 0.49L197.09 0.49Q196.99 1.27 196.99 2.21L196.99 2.21L196.99 26.46L192.93 26.46L182.73 10.82L182.73 26.46ZM225.35 10.76L225.41 10.80Q225.04 11.46 225.04 13.98L225.04 13.98L225.04 20.04Q225.04 22.79 222.19 24.82L222.19 24.82Q219.24 26.95 214.96 26.95L214.96 26.95Q209.02 26.95 205.49 23.22L205.49 23.22Q202.07 19.67 202.07 14.16L202.07 14.16Q202.07 8.30 205.55 4.39L205.55 4.39Q209.43 0 216.25 0L216.25 0Q220.80 0 223.46 1.76L223.46 1.76L223.14 7.52L222.99 7.56Q222.30 6.37 220.29 5.61L220.29 5.61Q218.38 4.88 216.28 4.88Q214.18 4.88 212.61 5.55Q211.04 6.21 209.94 7.44L209.94 7.44Q207.64 9.96 207.64 14.10L207.64 14.10Q207.64 17.71 209.67 19.90L209.67 19.90Q211.70 22.07 214.90 22.07L214.90 22.07Q218.44 22.07 219.67 20.23L219.67 20.23Q220.06 19.65 220.06 18.91L220.06 18.91L220.06 15.66L217.54 15.66Q215.51 15.66 215.33 16.02L215.33 16.02L215.27 16.00L215.10 10.90Q215.64 11.05 219.53 11.05L219.53 11.05L221.84 11.05Q223.98 11.05 225.35 10.76L225.35 10.76Z" transform="translate(150.513 108.56) scale(1)"></path></svg>